<?xml version="1.0" encoding="UTF-8" standalone="no"?>
<svg xmlns="http://www.w3.org/2000/svg" version="1.1" width="98" height="39">

<g transform="matrix(1.25,0,0,-1.25,209.15146,959.834)">

<g transform="translate(-157.01488,752.9562)">
<path d="m 0,0 -1.535,0 c -2.412,0 -4.751,1.754 -4.751,6.14 0,4.568 2.193,6.432 4.422,6.432 L 0,12.572 0,0 z m 2.412,14.911 -4.166,0 c -4.094,0 -7.565,-3.107 -7.565,-9.137 0,-3.618 1.681,-6.286 4.678,-7.601 l -5.592,-10.087 c -0.183,-0.329 0,-0.585 0.292,-0.585 l 2.595,0 c 0.219,0 0.366,0.073 0.439,0.256 l 5.08,9.904 1.827,0 0,-9.904 c 0,-0.11 0.11,-0.256 0.256,-0.256 l 2.266,0 c 0.219,0 0.292,0.11 0.292,0.292 l 0,26.753 c 0,0.255 -0.146,0.365 -0.402,0.365" style="fill:#ff0000;"/></g>

<g transform="translate(-140.86568,758.7815)"><path d="m 0,0 -2.266,0 c -0.183,0 -0.292,-0.146 -0.292,-0.256 l 0,-6.98 -4.203,0 0,6.98 C -6.761,-0.073 -6.834,0 -7.017,0 l -2.266,0 c -0.182,0 -0.292,-0.11 -0.292,-0.256 l 0,-17.762 c 0,-0.182 0.073,-0.292 0.255,-0.292 l 2.303,0 c 0.146,0 0.256,0.11 0.256,0.292 l 0,8.479 4.203,0 0,-8.479 c 0,-0.182 0.109,-0.292 0.292,-0.292 l 2.266,0 c 0.183,0 0.256,0.147 0.256,0.292 l 0,17.762 C 0.256,-0.11 0.146,0 0,0" style="fill:#231f20;"/></g>

<g transform="translate(-89.129977,741.6412)"><path d="m 0,0 -0.292,1.242 c -0.037,0.11 -0.073,0.147 -0.183,0.147 -0.183,0 -1.169,-0.402 -2.595,-0.402 -2.777,0 -4.13,2.668 -4.13,6.907 0,3.728 1.133,7.419 3.034,7.419 0.511,0 1.133,-0.146 2.119,-1.06 0.11,-0.11 0.183,-0.146 0.293,-0.146 0.11,0 0.219,0.073 0.329,0.256 l 0.987,1.608 c 0.073,0.109 0.109,0.219 0.109,0.329 0,0.146 -0.146,0.255 -0.365,0.365 -1.499,0.768 -2.522,0.914 -3.399,0.914 -3.435,0 -6.103,-4.093 -6.103,-10.489 0,-5.518 2.558,-8.698 6.213,-8.698 1.535,0 3.179,0.731 3.837,1.206 C 0,-0.292 0.037,-0.146 0,0" style="fill:#231f20;"/></g>
	 
<g transform="translate(-105.01378,750.522)"><path d="M 0,0 4.386,8.004 C 4.459,8.113 4.422,8.26 4.276,8.26 l -2.156,0 C 1.498,8.26 1.279,8.04 1.06,7.565 L -2.229,0.731 C -2.412,0.329 -2.595,0.073 -2.778,-0.037 l 0,8.041 c 0,0.146 -0.073,0.256 -0.219,0.256 l -2.376,0 c -0.109,0 -0.219,-0.11 -0.219,-0.256 l 0,-17.798 c 0,-0.11 0.073,-0.256 0.219,-0.256 l 2.376,0 c 0.146,0 0.219,0.11 0.219,0.256 l 0,9.173 c 0.11,-0.073 0.183,-0.183 0.256,-0.329 l 4.166,-8.552 c 0.22,-0.438 0.549,-0.548 1.024,-0.548 l 2.339,0 c 0.146,0 0.183,0.146 0.109,0.256 L 0,0" style="fill:#231f20;"/></g>

<g transform="translate(-129.90198,742.7742)"><path d="m 0,0 -5.299,0 c 1.864,3.179 2.595,6.761 2.851,11.147 0.073,0.95 0.109,1.936 0.109,2.558 L 0,13.705 0,0 z M 3.947,0 3.509,0 C 2.96,0 2.814,0.219 2.814,0.658 l 0,15.093 c 0,0.183 -0.073,0.256 -0.219,0.256 l -7.309,0 c -0.183,0 -0.293,-0.109 -0.293,-0.256 l 0,-1.315 C -5.007,10.014 -5.262,4.312 -7.601,0 l -0.805,0 c -0.219,0 -0.292,-0.11 -0.292,-0.292 l 0,-5.336 c 0,-0.183 0.146,-0.256 0.256,-0.256 l 1.754,0 c 0.402,0 0.548,0.292 0.548,0.548 l 0,3.034 7.821,0 0,-3.326 c 0,-0.146 0.11,-0.256 0.256,-0.256 l 1.864,0 c 0.219,0 0.439,0.183 0.439,0.548 l 0,5.044 C 4.24,-0.11 4.13,0 3.947,0" style="fill:#231f20;"/></g>

<g transform="translate(-118.90158,751.2895)"><path d="m 0,0 c -0.84,0 -2.156,-0.146 -2.156,-0.146 0,0 0,0.548 0.073,1.133 0.329,3.106 1.096,4.678 2.376,4.678 1.169,0 1.9,-1.608 2.083,-4.423 C 2.412,0.658 2.412,0 2.412,0 L 0,0 z m 0.402,7.93 c -3.947,0 -5.701,-4.97 -5.701,-10.379 0,-5.518 2.485,-8.807 6.14,-8.807 1.79,0 3.362,0.694 4.166,1.206 0.146,0.073 0.183,0.182 0.146,0.329 l -0.292,1.242 c -0.037,0.146 -0.11,0.219 -0.293,0.219 -0.146,0 -1.206,-0.402 -2.704,-0.402 -2.814,0 -4.13,2.449 -4.13,5.665 l 0,0.865 c 0,0 1.426,-0.171 2.266,-0.171 l 5.336,0 0,1.535 c 0,5.665 -2.01,8.698 -4.934,8.698" style="fill:#231f20;"/></g></g></svg>